<?xml version="1.0" encoding="UTF-8"?>
<svg width="620px" height="620px" viewBox="0 0 620 620" version="1.1" xmlns="http://www.w3.org/2000/svg" xmlns:xlink="http://www.w3.org/1999/xlink">
    <!-- Generator: Sketch 45.1 (43504) - http://www.bohemiancoding.com/sketch -->
    <title>Logo</title>
    <desc>Created with Sketch.</desc>
    <defs></defs>
    <g id="Page-1" stroke="none" stroke-width="1" fill="none" fill-rule="evenodd">
        <g id="Logo">
            <rect id="Rectangle" fill="#6A0C19" x="0" y="0" width="620" height="620" rx="58"></rect>
            <g id="Group-2" transform="translate(40.000000, 42.000000)">
                <rect id="Rectangle-2-Copy" fill="#FDCE13" transform="translate(126.624512, 184.417275) rotate(105.000000) translate(-126.624512, -184.417275) " x="105.624512" y="64.1292478" width="42" height="240.576054" rx="21"></rect>
                <rect id="Rectangle-2" fill="#FDCE13" x="0" y="0" width="42" height="535" rx="21"></rect>
                <path d="M235.477688,237.941066 C233.537058,185.802736 239.832576,126.464415 205.268395,91.0125852 C171.944311,56.8327001 95.9618762,36.8440961 34.5254913,22.8723537 C20.3527029,19.6492059 20.1687109,13.7434163 18.4237793,22.8723537 C17.0970876,29.8131904 16.9866411,61.5072765 18.4237793,75.9333566 C19.6466448,88.2085544 29.0226894,88.7896722 42.8083215,95.2020714 C90.8946563,117.569474 196.259676,122.116696 228.235882,161.992935 C237.407709,173.430751 235.873633,248.578791 235.477688,237.941066 Z" id="Oval-Copy" stroke="#FDCE13" stroke-width="35"></path>
            </g>
            <g id="Group-2-Copy" transform="translate(455.500000, 309.500000) scale(-1, 1) translate(-455.500000, -309.500000) translate(331.000000, 42.000000)">
                <rect id="Rectangle-2-Copy" fill="#FDCE13" transform="translate(126.624512, 184.417275) rotate(105.000000) translate(-126.624512, -184.417275) " x="105.624512" y="64.1292478" width="42" height="240.576054" rx="21"></rect>
                <rect id="Rectangle-2" fill="#FDCE13" x="0" y="0" width="42" height="535" rx="21"></rect>
                <path d="M235.477688,237.941066 C233.537058,185.802736 239.832576,126.464415 205.268395,91.0125852 C171.944311,56.8327001 95.9618762,36.8440961 34.5254913,22.8723537 C20.3527029,19.6492059 20.1687109,13.7434163 18.4237793,22.8723537 C17.0970876,29.8131904 16.9866411,61.5072765 18.4237793,75.9333566 C19.6466448,88.2085544 29.0226894,88.7896722 42.8083215,95.2020714 C90.8946563,117.569474 196.259676,122.116696 228.235882,161.992935 C237.407709,173.430751 235.873633,248.578791 235.477688,237.941066 Z" id="Oval-Copy" stroke="#FDCE13" stroke-width="35"></path>
            </g>
            <path d="M413.546272,542.969582 C379.291157,542.454409 383.724365,497.447907 382.264014,476.455831 C381.816576,470.016167 381.176986,463.363075 380.260149,456.633933 C390.962985,427.345117 398.237291,396.753648 403.362244,366.765668 C405.105333,356.565241 376.205753,361.096311 374.701482,369.922943 C372.541151,382.56431 370.018476,395.399479 367.031894,408.232195 C359.494067,391.974805 348.390457,377.469002 331.931312,367.141009 C295.908404,344.53227 251.461027,363.083407 226.028409,389.906753 C197.197455,420.314231 191.559182,460.961387 204.762733,498.225573 C216.763964,532.087164 247.837599,563.490643 290.978347,556.643748 C321.848851,551.74715 341.363204,532.85747 355.453396,509.944534 C355.854169,513.572825 356.334548,517.193755 356.927472,520.807327 C358.467429,530.156492 361.626948,539.598878 368.703611,546.83338 C376.949654,555.262593 390.586918,557.48765 402.450898,557.666734 C408.907187,557.762409 417.507337,555.718889 421.350366,550.638301 C425.176925,545.584699 418.135947,543.040725 413.546272,542.969582 Z M330.347435,506.762727 C323.902127,517.995954 316.177638,529.182569 305.203045,537.317397 C293.026132,546.345192 276.569732,542.832203 264.217139,534.245985 C229.981239,510.449894 219.080761,460.799475 231.372965,425.225547 C238.562174,404.415008 258.43338,374.012436 285.611831,371.603389 C299.713003,370.354707 312.968709,381.767018 321.206516,390.39494 C333.940668,403.733017 341.593786,420.45897 346.504628,437.253612 C348.835151,445.226529 350.287267,453.277948 351.31665,461.371072 C345.49446,477.076491 338.618183,492.34524 330.347435,506.762727 Z" id="Shape" fill="#FDCE13" fill-rule="nonzero"></path>
        </g>
    </g>
</svg>